<svg xmlns="http://www.w3.org/2000/svg" viewBox="0 0 335 256"><path d="M84.00,89.50 L83.50,89.00 L83.00,88.50 L82.50,88.00 L82.50,87.00 L82.00,86.50 L81.50,86.00 L81.50,85.00 L81.50,84.00 L81.50,83.00 L81.50,82.00 L81.50,81.00 L81.50,80.00 L81.50,79.00 L81.50,78.00 L82.00,77.50 L82.50,77.00 L82.50,76.00 L82.50,75.00 L83.00,74.50 L83.50,74.00 L83.50,73.00 L84.00,72.50 L84.50,72.00 L85.00,71.50 L85.50,71.00 L86.00,70.50 L86.50,70.00 L87.00,69.50 L87.50,69.00 L88.00,68.50 L88.50,68.00 L89.00,67.50 L89.50,67.00 L90.00,66.50 L90.50,66.00 L91.00,65.50 L91.50,65.00 L92.00,64.50 L92.50,64.00 L93.00,63.50 L94.00,63.50 L94.50,63.00 L95.00,62.50 L95.50,62.00 L96.00,61.50 L96.50,61.00 L97.00,60.50 L98.00,60.50 L98.50,60.00 L99.00,59.50 L100.00,59.50 L100.50,59.00 L101.00,58.50 L101.50,58.00 L102.00,57.50 L103.00,57.50 L103.50,57.00 L104.00,56.50 L105.00,56.50 L105.50,56.00 L106.00,55.50 L107.00,55.50 L108.00,55.50 L108.50,55.00 L109.00,54.50 L110.00,54.50 L110.50,54.00 L111.00,53.50 L112.00,53.50 L113.00,53.50 L113.50,53.00 L114.00,52.50 L115.00,52.50 L115.50,52.00 L116.00,51.50 L117.00,51.50 L118.00,51.50 L118.50,51.00 L119.00,50.50 L120.00,50.50 L121.00,50.50 L121.50,50.00 L122.00,49.50 L123.00,49.50 L124.00,49.50 L124.50,49.00 L125.00,48.50 L126.00,48.50 L127.00,48.50 L128.00,48.50 L128.50,48.00 L129.00,47.50 L130.00,47.50 L131.00,47.50 L131.50,47.00 L132.00,46.50 L133.00,46.50 L134.00,46.50 L135.00,46.50 L135.50,46.00 L136.00,45.50 L137.00,45.50 L138.00,45.50 L139.00,45.50 L140.00,45.50 L140.50,45.00 L141.00,44.50 L142.00,44.50 L143.00,44.50 L144.00,44.50 L144.50,44.00 L145.00,43.50 L146.00,43.50 L147.00,43.50 L148.00,43.50 L149.00,43.50 L150.00,43.50 L151.00,43.50 L151.50,43.00 L152.00,42.50 L153.00,42.50 L154.00,42.50 L155.00,42.50 L156.00,42.50 L157.00,42.50 L158.00,42.50 L159.00,42.50 L159.50,42.00 L160.00,41.50 L161.00,41.50 L162.00,41.50 L163.00,41.50 L164.00,41.50 L165.00,41.50 L166.00,41.50 L167.00,41.50 L168.00,41.50 L169.00,41.50 L170.00,41.50 L171.00,41.50 L172.00,41.50 L173.00,41.50 L174.00,41.50 L175.00,41.50 L176.00,41.50 L177.00,41.50 L178.00,41.50 L179.00,41.50 L180.00,41.50 L181.00,41.50 L182.00,41.50 L183.00,41.50 L184.00,41.50 L185.00,41.50 L186.00,41.50 L187.00,41.50 L187.50,42.00 L187.00,42.50 L186.00,42.50 L185.00,42.50 L184.00,42.50 L183.00,42.50 L182.00,42.50 L181.00,42.50 L180.50,43.00 L180.00,43.50 L179.00,43.50 L178.00,43.50 L177.00,43.50 L176.00,43.50 L175.00,43.50 L174.00,43.50 L173.00,43.50 L172.50,44.00 L172.00,44.50 L171.00,44.50 L170.00,44.50 L169.00,44.50 L168.00,44.50 L167.00,44.50 L166.00,44.50 L165.50,45.00 L165.00,45.50 L164.00,45.50 L163.00,45.50 L162.00,45.50 L161.00,45.50 L160.50,46.00 L160.00,46.50 L159.00,46.50 L158.00,46.50 L157.00,46.50 L156.50,47.00 L156.00,47.50 L155.00,47.50 L154.00,47.50 L153.00,47.50 L152.50,48.00 L152.00,48.50 L151.00,48.50 L150.00,48.50 L149.00,48.50 L148.50,49.00 L148.00,49.50 L147.00,49.50 L146.00,49.50 L145.00,49.50 L144.50,50.00 L144.00,50.50 L143.00,50.50 L142.00,50.50 L141.00,50.50 L140.50,51.00 L140.00,51.50 L139.00,51.50 L138.00,51.50 L137.50,52.00 L137.00,52.50 L136.00,52.50 L135.00,52.50 L134.50,53.00 L134.00,53.50 L133.00,53.50 L132.00,53.50 L131.50,54.00 L131.00,54.50 L130.00,54.50 L129.00,54.50 L128.50,55.00 L128.00,55.50 L127.00,55.50 L126.00,55.50 L125.50,56.00 L125.00,56.50 L124.00,56.50 L123.50,57.00 L123.00,57.50 L122.00,57.50 L121.00,57.50 L120.50,58.00 L120.00,58.50 L119.00,58.50 L118.50,59.00 L118.00,59.50 L117.00,59.50 L116.00,59.50 L115.50,60.00 L115.00,60.50 L114.00,60.50 L113.50,61.00 L113.00,61.50 L112.00,61.50 L111.50,62.00 L111.00,62.50 L110.00,62.50 L109.50,63.00 L109.00,63.50 L108.00,63.50 L107.50,64.00 L107.00,64.50 L106.00,64.50 L105.50,65.00 L105.00,65.50 L104.00,65.50 L103.50,66.00 L103.00,66.50 L102.50,67.00 L102.00,67.50 L101.00,67.50 L100.50,68.00 L100.00,68.50 L99.50,69.00 L99.00,69.50 L98.00,69.50 L97.50,70.00 L97.00,70.50 L96.50,71.00 L96.00,71.50 L95.50,72.00 L95.00,72.50 L94.00,72.50 L93.50,73.00 L93.00,73.50 L92.50,74.00 L92.00,74.50 L91.50,75.00 L91.00,75.50 L90.50,76.00 L90.00,76.50 L89.50,77.00 L89.00,77.50 L88.50,78.00 L88.50,79.00 L88.00,79.50 L87.50,80.00 L87.00,80.50 L86.50,81.00 L86.50,82.00 L86.00,82.50 L85.50,83.00 L85.50,84.00 L85.50,85.00 L85.00,85.50 L84.50,86.00 L84.50,87.00 L84.50,88.00 L84.50,89.00 L84.00,89.50 Z" fill="black"/><path d="M88.00,52.50 L87.50,52.00 L88.00,51.50 L88.50,52.00 L88.00,52.50 Z" fill="black"/><path d="M143.00,140.50 L142.00,140.50 L141.00,140.50 L140.00,140.50 L139.00,140.50 L138.00,140.50 L137.00,140.50 L136.00,140.50 L135.00,140.50 L134.00,140.50 L133.00,140.50 L132.00,140.50 L131.00,140.50 L130.00,140.50 L129.00,140.50 L128.00,140.50 L127.00,140.50 L126.00,140.50 L125.00,140.50 L124.00,140.50 L123.00,140.50 L122.00,140.50 L121.00,140.50 L120.00,140.50 L119.00,140.50 L118.00,140.50 L117.00,140.50 L116.00,140.50 L115.00,140.50 L114.00,140.50 L113.00,140.50 L112.00,140.50 L111.50,140.00 L111.00,139.50 L110.00,139.50 L109.00,139.50 L108.00,139.50 L107.00,139.50 L106.00,139.50 L105.00,139.50 L104.50,139.00 L104.00,138.50 L103.00,138.50 L102.00,138.50 L101.00,138.50 L100.50,138.00 L100.00,137.50 L99.00,137.50 L98.00,137.50 L97.50,137.00 L97.00,136.50 L96.00,136.50 L95.00,136.50 L94.50,136.00 L94.00,135.50 L93.00,135.50 L92.00,135.50 L91.50,135.00 L91.00,134.50 L90.00,134.50 L89.50,134.00 L89.00,133.50 L88.50,133.00 L88.00,132.50 L87.00,132.50 L86.50,132.00 L86.00,131.50 L85.50,131.00 L85.00,130.50 L84.00,130.50 L83.50,130.00 L83.00,129.50 L82.50,129.00 L82.00,128.50 L81.50,128.00 L81.00,127.50 L80.50,127.00 L80.00,126.50 L79.50,126.00 L79.50,125.00 L79.00,124.50 L78.50,124.00 L78.50,123.00 L78.00,122.50 L77.50,122.00 L77.50,121.00 L77.50,120.00 L77.50,119.00 L77.50,118.00 L78.00,117.50 L78.50,118.00 L79.00,118.50 L79.50,119.00 L80.00,119.50 L80.50,120.00 L81.00,120.50 L82.00,120.50 L82.50,121.00 L83.00,121.50 L84.00,121.50 L84.50,122.00 L85.00,122.50 L86.00,122.50 L87.00,122.50 L87.50,123.00 L88.00,123.50 L89.00,123.50 L90.00,123.50 L90.50,124.00 L91.00,124.50 L92.00,124.50 L93.00,124.50 L94.00,124.50 L94.50,125.00 L95.00,125.50 L96.00,125.50 L97.00,125.50 L98.00,125.50 L99.00,125.50 L100.00,125.50 L100.50,126.00 L101.00,126.50 L102.00,126.50 L103.00,126.50 L104.00,126.50 L105.00,126.50 L106.00,126.50 L107.00,126.50 L108.00,126.50 L108.50,127.00 L109.00,127.50 L110.00,127.50 L111.00,127.50 L112.00,127.50 L113.00,127.50 L114.00,127.50 L115.00,127.50 L116.00,127.50 L117.00,127.50 L118.00,127.50 L119.00,127.50 L120.00,127.50 L121.00,127.50 L122.00,127.50 L123.00,127.50 L124.00,127.50 L125.00,127.50 L126.00,127.50 L127.00,127.50 L128.00,127.50 L129.00,127.50 L130.00,127.50 L131.00,127.50 L132.00,127.50 L133.00,127.50 L134.00,127.50 L135.00,127.50 L136.00,127.50 L136.50,127.00 L137.00,126.50 L138.00,126.50 L139.00,126.50 L140.00,126.50 L141.00,126.50 L142.00,126.50 L143.00,126.50 L144.00,126.50 L145.00,126.50 L146.00,126.50 L146.50,126.00 L147.00,125.50 L148.00,125.50 L149.00,125.50 L150.00,125.50 L151.00,125.50 L152.00,125.50 L153.00,125.50 L154.00,125.50 L154.50,125.00 L155.00,124.50 L156.00,124.50 L157.00,124.50 L158.00,124.50 L159.00,124.50 L160.00,124.50 L161.00,124.50 L161.50,124.00 L162.00,123.50 L163.00,123.50 L164.00,123.50 L165.00,123.50 L166.00,123.50 L166.50,123.00 L167.00,122.50 L168.00,122.50 L169.00,122.50 L170.00,122.50 L171.00,122.50 L171.50,122.00 L172.00,121.50 L173.00,121.50 L174.00,121.50 L175.00,121.50 L176.00,121.50 L176.50,121.00 L177.00,120.50 L178.00,120.50 L179.00,120.50 L180.00,120.50 L180.50,120.00 L181.00,119.50 L182.00,119.50 L183.00,119.50 L183.50,119.00 L184.00,118.50 L185.00,118.50 L186.00,118.50 L187.00,118.50 L187.50,118.00 L188.00,117.50 L189.00,117.50 L190.00,117.50 L191.00,117.50 L191.50,117.00 L192.00,116.50 L193.00,116.50 L194.00,116.50 L194.50,116.00 L195.00,115.50 L196.00,115.50 L197.00,115.50 L197.50,115.00 L198.00,114.50 L199.00,114.50 L200.00,114.50 L200.50,114.00 L201.00,113.50 L202.00,113.50 L202.50,113.00 L203.00,112.50 L204.00,112.50 L205.00,112.50 L205.50,112.00 L206.00,111.50 L207.00,111.50 L208.00,111.50 L208.50,111.00 L209.00,110.50 L210.00,110.50 L210.50,110.00 L211.00,109.50 L212.00,109.50 L213.00,109.50 L213.50,109.00 L214.00,108.50 L215.00,108.50 L215.50,108.00 L216.00,107.50 L217.00,107.50 L217.50,107.00 L218.00,106.50 L219.00,106.50 L219.50,106.00 L220.00,105.50 L221.00,105.50 L221.50,105.00 L222.00,104.50 L222.50,104.00 L223.00,103.50 L224.00,103.50 L224.50,103.00 L225.00,102.50 L226.00,102.50 L226.50,102.00 L227.00,101.50 L228.00,101.50 L228.50,101.00 L229.00,100.50 L229.50,100.00 L230.00,99.50 L231.00,99.50 L231.50,99.00 L232.00,98.50 L232.50,98.00 L233.00,97.50 L234.00,97.50 L234.50,97.00 L235.00,96.50 L235.50,96.00 L236.00,95.50 L236.50,95.00 L237.00,94.50 L237.50,94.00 L238.00,93.50 L238.50,93.00 L239.00,92.50 L239.50,92.00 L240.00,91.50 L240.50,91.00 L241.00,90.50 L241.50,90.00 L242.00,89.50 L242.50,89.00 L242.50,88.00 L243.00,87.50 L243.50,87.00 L243.50,86.00 L244.00,85.50 L244.50,85.00 L244.50,84.00 L244.50,83.00 L244.50,82.00 L244.50,81.00 L244.50,80.00 L244.50,79.00 L244.50,78.00 L244.00,77.50 L243.50,77.00 L243.00,76.50 L242.50,76.00 L242.50,75.00 L242.00,74.50 L241.50,74.00 L241.00,73.50 L240.50,73.00 L240.00,72.50 L239.50,72.00 L239.00,71.50 L238.00,71.50 L237.50,71.00 L237.00,70.50 L236.00,70.50 L235.50,70.00 L235.00,69.50 L234.00,69.50 L233.50,69.00 L233.00,68.50 L232.00,68.50 L231.50,68.00 L231.00,67.50 L230.00,67.50 L229.00,67.50 L228.50,67.00 L228.00,66.50 L227.00,66.50 L226.00,66.50 L225.50,66.00 L225.00,65.50 L224.00,65.50 L223.00,65.50 L222.00,65.50 L221.50,66.00 L222.00,66.50 L223.00,66.50 L224.00,66.50 L224.50,67.00 L225.00,67.50 L226.00,67.50 L227.00,67.50 L227.50,68.00 L228.00,68.50 L229.00,68.50 L229.50,69.00 L230.00,69.50 L231.00,69.50 L231.50,70.00 L232.00,70.50 L232.50,71.00 L233.00,71.50 L233.50,72.00 L234.00,72.50 L234.50,73.00 L235.00,73.50 L235.50,74.00 L236.00,74.50 L236.50,75.00 L237.00,75.50 L237.50,76.00 L237.50,77.00 L237.50,78.00 L237.50,79.00 L237.50,80.00 L237.50,81.00 L237.50,82.00 L237.00,82.50 L236.50,82.00 L236.00,81.50 L235.50,81.00 L235.50,80.00 L235.00,79.50 L234.50,79.00 L234.50,78.00 L234.00,77.50 L233.50,77.00 L233.00,76.50 L232.00,76.50 L231.50,76.00 L231.00,75.50 L230.00,75.50 L229.50,75.00 L229.00,74.50 L228.00,74.50 L227.50,74.00 L227.00,73.50 L226.00,73.50 L225.00,73.50 L224.50,73.00 L224.00,72.50 L223.00,72.50 L222.00,72.50 L221.00,72.50 L220.50,72.00 L220.00,71.50 L219.00,71.50 L218.00,71.50 L217.00,71.50 L216.00,71.50 L215.50,71.00 L215.00,70.50 L214.00,70.50 L213.00,70.50 L212.00,70.50 L211.00,70.50 L210.00,70.50 L209.00,70.50 L208.50,70.00 L208.00,69.50 L207.00,69.50 L206.00,69.50 L205.00,69.50 L204.00,69.50 L203.00,69.50 L202.00,69.50 L201.00,69.50 L200.00,69.50 L199.00,69.50 L198.00,69.50 L197.00,69.50 L196.00,69.50 L195.00,69.50 L194.00,69.50 L193.00,69.50 L192.00,69.50 L191.00,69.50 L190.00,69.50 L189.00,69.50 L188.00,69.50 L187.00,69.50 L186.00,69.50 L185.00,69.50 L184.50,70.00 L184.00,70.50 L183.00,70.50 L182.00,70.50 L181.00,70.50 L180.00,70.50 L179.00,70.50 L178.00,70.50 L177.00,70.50 L176.50,71.00 L176.00,71.50 L175.00,71.50 L174.00,71.50 L173.00,71.50 L172.00,71.50 L171.00,71.50 L170.50,72.00 L170.00,72.50 L169.00,72.50 L168.00,72.50 L167.00,72.50 L166.00,72.50 L165.50,73.00 L165.00,73.50 L164.00,73.50 L163.00,73.50 L162.00,73.50 L161.00,73.50 L160.50,74.00 L160.00,74.50 L159.00,74.50 L158.00,74.50 L157.50,75.00 L157.00,75.50 L156.00,75.50 L155.00,75.50 L154.00,75.50 L153.50,76.00 L153.00,76.50 L152.00,76.50 L151.00,76.50 L150.50,77.00 L150.00,77.50 L149.00,77.50 L148.00,77.50 L147.50,78.00 L147.00,78.50 L146.00,78.50 L145.50,79.00 L145.00,79.50 L144.00,79.50 L143.00,79.50 L142.50,80.00 L142.00,80.50 L141.00,80.50 L140.50,81.00 L140.00,81.50 L139.00,81.50 L138.50,82.00 L138.00,82.50 L137.00,82.50 L136.50,83.00 L136.00,83.50 L135.00,83.50 L134.50,84.00 L134.00,84.50 L133.00,84.50 L132.50,85.00 L132.00,85.50 L131.00,85.50 L130.50,86.00 L130.00,86.50 L129.50,87.00 L129.00,87.50 L128.00,87.50 L127.50,88.00 L127.00,88.50 L126.50,89.00 L126.00,89.50 L125.50,90.00 L125.00,90.50 L124.50,91.00 L124.00,91.50 L123.50,92.00 L123.00,92.50 L122.50,93.00 L122.00,93.50 L121.50,94.00 L121.50,95.00 L121.00,95.50 L120.50,96.00 L120.50,97.00 L120.00,97.50 L119.50,98.00 L119.50,99.00 L120.00,99.50 L121.00,99.50 L121.50,99.00 L121.50,98.00 L122.00,97.50 L122.50,97.00 L123.00,96.50 L123.50,96.00 L124.00,95.50 L125.00,95.50 L125.50,95.00 L126.00,94.50 L126.50,94.00 L127.00,93.50 L127.50,93.00 L128.00,92.50 L129.00,92.50 L129.50,92.00 L130.00,91.50 L131.00,91.50 L131.50,91.00 L132.00,90.50 L132.50,90.00 L133.00,89.50 L134.00,89.50 L134.50,89.00 L135.00,88.50 L136.00,88.50 L136.50,88.00 L137.00,87.50 L138.00,87.50 L139.00,87.50 L139.50,87.00 L140.00,86.50 L141.00,86.50 L142.00,86.50 L142.50,86.00 L143.00,85.50 L144.00,85.50 L145.00,85.50 L145.50,85.00 L146.00,84.50 L147.00,84.50 L148.00,84.50 L149.00,84.50 L149.50,84.00 L150.00,83.50 L151.00,83.50 L152.00,83.50 L153.00,83.50 L153.50,83.00 L154.00,82.50 L155.00,82.50 L156.00,82.50 L157.00,82.50 L158.00,82.50 L158.50,82.00 L159.00,81.50 L160.00,81.50 L161.00,81.50 L162.00,81.50 L163.00,81.50 L163.50,81.00 L164.00,80.50 L165.00,80.50 L166.00,80.50 L167.00,80.50 L168.00,80.50 L169.00,80.50 L170.00,80.50 L170.50,80.00 L171.00,79.50 L172.00,79.50 L173.00,79.50 L174.00,79.50 L175.00,79.50 L176.00,79.50 L177.00,79.50 L178.00,79.50 L179.00,79.50 L180.00,79.50 L181.00,79.50 L182.00,79.50 L183.00,79.50 L183.50,79.00 L184.00,78.50 L185.00,78.50 L186.00,78.50 L187.00,78.50 L188.00,78.50 L189.00,78.50 L190.00,78.50 L191.00,78.50 L192.00,78.50 L192.50,79.00 L193.00,79.50 L194.00,79.50 L195.00,79.50 L196.00,79.50 L197.00,79.50 L198.00,79.50 L199.00,79.50 L200.00,79.50 L201.00,79.50 L202.00,79.50 L203.00,79.50 L203.50,80.00 L204.00,80.50 L205.00,80.50 L206.00,80.50 L207.00,80.50 L208.00,80.50 L209.00,80.50 L209.50,81.00 L210.00,81.50 L211.00,81.50 L212.00,81.50 L213.00,81.50 L213.50,82.00 L214.00,82.50 L215.00,82.50 L216.00,82.50 L216.50,83.00 L217.00,83.50 L218.00,83.50 L219.00,83.50 L219.50,84.00 L220.00,84.50 L220.50,85.00 L221.00,85.50 L222.00,85.50 L222.50,86.00 L223.00,86.50 L223.50,87.00 L224.00,87.50 L224.50,88.00 L224.50,89.00 L224.50,90.00 L224.50,91.00 L224.50,92.00 L224.00,92.50 L223.50,93.00 L223.00,93.50 L222.50,93.00 L222.50,92.00 L222.00,91.50 L221.50,91.00 L221.00,90.50 L220.50,90.00 L220.00,89.50 L219.00,89.50 L218.50,89.00 L218.00,88.50 L217.00,88.50 L216.00,88.50 L215.50,88.00 L215.00,87.50 L214.00,87.50 L213.00,87.50 L212.00,87.50 L211.00,87.50 L210.50,87.00 L210.00,86.50 L209.00,86.50 L208.00,86.50 L207.00,86.50 L206.00,86.50 L205.00,86.50 L204.00,86.50 L203.00,86.50 L202.00,86.50 L201.00,86.50 L200.00,86.50 L199.00,86.50 L198.00,86.50 L197.00,86.50 L196.00,86.50 L195.00,86.50 L194.00,86.50 L193.00,86.50 L192.00,86.50 L191.00,86.50 L190.00,86.50 L189.00,86.50 L188.00,86.50 L187.00,86.50 L186.00,86.50 L185.00,86.50 L184.50,87.00 L184.00,87.50 L183.00,87.50 L182.00,87.50 L181.00,87.50 L180.00,87.50 L179.00,87.50 L178.00,87.50 L177.00,87.50 L176.50,88.00 L176.00,88.50 L175.00,88.50 L174.00,88.50 L173.00,88.50 L172.00,88.50 L171.00,88.50 L170.00,88.50 L169.50,89.00 L169.00,89.50 L168.00,89.50 L167.00,89.50 L166.00,89.50 L165.00,89.50 L164.50,90.00 L164.00,90.50 L163.00,90.50 L162.00,90.50 L161.00,90.50 L160.00,90.50 L159.50,91.00 L159.00,91.50 L158.00,91.50 L157.00,91.50 L156.50,92.00 L157.00,92.50 L158.00,92.50 L159.00,92.50 L160.00,92.50 L161.00,92.50 L161.50,92.00 L162.00,91.50 L163.00,91.50 L164.00,91.50 L165.00,91.50 L166.00,91.50 L167.00,91.50 L168.00,91.50 L169.00,91.50 L170.00,91.50 L171.00,91.50 L171.50,91.00 L172.00,90.50 L173.00,90.50 L174.00,90.50 L175.00,90.50 L176.00,90.50 L177.00,90.50 L178.00,90.50 L179.00,90.50 L180.00,90.50 L181.00,90.50 L182.00,90.50 L183.00,90.50 L184.00,90.50 L185.00,90.50 L186.00,90.50 L187.00,90.50 L188.00,90.50 L189.00,90.50 L190.00,90.50 L191.00,90.50 L192.00,90.50 L193.00,90.50 L194.00,90.50 L194.50,91.00 L195.00,91.50 L196.00,91.50 L197.00,91.50 L198.00,91.50 L199.00,91.50 L200.00,91.50 L201.00,91.50 L201.50,92.00 L202.00,92.50 L203.00,92.50 L204.00,92.50 L205.00,92.50 L206.00,92.50 L207.00,92.50 L207.50,93.00 L208.00,93.50 L209.00,93.50 L210.00,93.50 L211.00,93.50 L211.50,94.00 L211.00,94.50 L210.50,95.00 L210.00,95.50 L209.50,96.00 L209.00,96.50 L208.50,97.00 L208.00,97.50 L207.50,98.00 L207.00,98.50 L206.00,98.50 L205.50,99.00 L205.00,99.50 L204.00,99.50 L203.50,100.00 L203.00,100.50 L202.00,100.50 L201.50,101.00 L201.00,101.50 L200.00,101.50 L199.50,102.00 L199.00,102.50 L198.00,102.50 L197.50,103.00 L197.00,103.50 L196.00,103.50 L195.50,104.00 L195.00,104.50 L194.00,104.50 L193.00,104.50 L192.50,105.00 L192.00,105.50 L191.00,105.50 L190.00,105.50 L189.50,106.00 L189.00,106.50 L188.00,106.50 L187.00,106.50 L186.00,106.50 L185.50,107.00 L185.00,107.50 L184.00,107.50 L183.00,107.50 L182.50,108.00 L182.00,108.50 L181.00,108.50 L180.00,108.50 L179.00,108.50 L178.50,109.00 L178.00,109.50 L177.00,109.50 L176.00,109.50 L175.00,109.50 L174.50,110.00 L174.00,110.50 L173.00,110.50 L172.00,110.50 L171.00,110.50 L170.00,110.50 L169.50,111.00 L169.00,111.50 L168.00,111.50 L167.00,111.50 L166.00,111.50 L165.50,112.00 L165.00,112.50 L164.00,112.50 L163.00,112.50 L162.00,112.50 L161.00,112.50 L160.00,112.50 L159.50,113.00 L159.00,113.50 L158.00,113.50 L157.00,113.50 L156.00,113.50 L155.00,113.50 L154.00,113.50 L153.00,113.50 L152.00,113.50 L151.50,114.00 L151.00,114.50 L150.00,114.50 L149.00,114.50 L148.00,114.50 L147.00,114.50 L146.00,114.50 L145.00,114.50 L144.00,114.50 L143.00,114.50 L142.00,114.50 L141.00,114.50 L140.50,115.00 L140.00,115.50 L139.00,115.50 L138.00,115.50 L137.00,115.50 L136.00,115.50 L135.00,115.50 L134.00,115.50 L133.00,115.50 L132.00,115.50 L131.00,115.50 L130.00,115.50 L129.00,115.50 L128.00,115.50 L127.00,115.50 L126.00,115.50 L125.00,115.50 L124.00,115.50 L123.00,115.50 L122.00,115.50 L121.00,115.50 L120.00,115.50 L119.00,115.50 L118.00,115.50 L117.00,115.50 L116.00,115.50 L115.00,115.50 L114.50,115.00 L114.00,114.50 L113.00,114.50 L112.00,114.50 L111.00,114.50 L110.00,114.50 L109.00,114.50 L108.00,114.50 L107.00,114.50 L106.00,114.50 L105.50,114.00 L105.00,113.50 L104.00,113.50 L103.00,113.50 L102.00,113.50 L101.00,113.50 L100.00,113.50 L99.50,113.00 L99.00,112.50 L98.00,112.50 L97.00,112.50 L96.00,112.50 L95.00,112.50 L94.50,112.00 L94.00,111.50 L93.00,111.50 L92.00,111.50 L91.00,111.50 L90.50,111.00 L90.00,110.50 L89.00,110.50 L88.00,110.50 L87.50,110.00 L87.00,109.50 L86.00,109.50 L85.00,109.50 L84.50,109.00 L84.00,108.50 L83.00,108.50 L82.00,108.50 L81.50,108.00 L81.00,107.50 L80.00,107.50 L79.50,107.00 L79.00,106.50 L78.00,106.50 L77.00,106.50 L76.50,106.00 L76.00,105.50 L75.00,105.50 L74.50,105.00 L74.00,104.50 L73.00,104.50 L72.50,104.00 L72.00,103.50 L71.50,103.00 L71.00,102.50 L70.00,102.50 L69.50,102.00 L69.00,101.50 L68.50,101.00 L68.00,100.50 L67.50,100.00 L67.00,99.50 L66.00,99.50 L65.50,99.00 L65.00,98.50 L64.50,98.00 L64.00,97.50 L63.50,97.00 L63.00,96.50 L62.50,96.00 L62.00,95.50 L61.50,95.00 L61.50,94.00 L61.00,93.50 L60.50,93.00 L60.00,92.50 L59.50,92.00 L59.00,91.50 L58.50,91.00 L58.50,90.00 L58.50,89.00 L58.00,88.50 L57.50,88.00 L57.50,87.00 L57.50,86.00 L57.00,85.50 L56.50,85.00 L56.50,84.00 L56.50,83.00 L56.50,82.00 L56.50,81.00 L56.50,80.00 L56.50,79.00 L56.50,78.00 L56.50,77.00 L57.00,76.50 L57.50,76.00 L57.50,75.00 L57.50,74.00 L58.00,73.50 L58.50,73.00 L58.50,72.00 L59.00,71.50 L59.50,71.00 L59.50,70.00 L60.00,69.50 L60.50,69.00 L61.00,68.50 L61.50,68.00 L62.00,67.50 L62.50,67.00 L62.50,66.00 L63.00,65.50 L63.50,65.00 L64.00,64.50 L64.50,64.00 L65.00,63.50 L65.50,63.00 L66.00,62.50 L67.00,62.50 L67.50,62.00 L68.00,61.50 L68.50,61.00 L69.00,60.50 L70.00,60.50 L70.50,60.00 L71.00,59.50 L71.50,59.00 L72.00,58.50 L73.00,58.50 L73.50,58.00 L74.00,57.50 L75.00,57.50 L75.50,57.00 L76.00,56.50 L77.00,56.50 L77.50,56.00 L78.00,55.50 L79.00,55.50 L79.50,55.00 L80.00,54.50 L81.00,54.50 L81.50,54.00 L82.00,53.50 L83.00,53.50 L84.00,53.50 L84.50,53.00 L85.00,52.50 L86.00,52.50 L87.00,52.50 L87.50,53.00 L87.00,53.50 L86.00,53.50 L85.50,54.00 L85.00,54.50 L84.50,55.00 L84.00,55.50 L83.00,55.50 L82.50,56.00 L82.00,56.50 L81.50,57.00 L81.00,57.50 L80.00,57.50 L79.50,58.00 L79.00,58.50 L78.50,59.00 L78.00,59.50 L77.50,60.00 L77.00,60.50 L76.00,60.50 L75.50,61.00 L75.00,61.50 L74.50,62.00 L74.00,62.50 L73.50,63.00 L73.50,64.00 L73.00,64.50 L72.50,65.00 L72.00,65.50 L71.50,66.00 L71.00,66.50 L70.50,67.00 L70.50,68.00 L70.00,68.50 L69.50,69.00 L69.50,70.00 L69.00,70.50 L68.50,71.00 L68.50,72.00 L68.00,72.50 L67.50,73.00 L67.50,74.00 L67.50,75.00 L67.50,76.00 L67.50,77.00 L67.00,77.50 L66.50,78.00 L66.50,79.00 L67.00,79.50 L67.50,80.00 L67.50,81.00 L67.50,82.00 L67.50,83.00 L67.50,84.00 L68.00,84.50 L68.50,85.00 L68.50,86.00 L69.00,86.50 L69.50,87.00 L69.50,88.00 L70.00,88.50 L70.50,89.00 L71.00,89.50 L71.50,90.00 L72.00,90.50 L72.50,91.00 L73.00,91.50 L73.50,92.00 L74.00,92.50 L74.50,93.00 L75.00,93.50 L75.50,94.00 L76.00,94.50 L77.00,94.50 L77.50,95.00 L78.00,95.50 L78.50,96.00 L79.00,96.50 L80.00,96.50 L80.50,97.00 L81.00,97.50 L82.00,97.50 L82.50,98.00 L83.00,98.50 L84.00,98.50 L84.50,99.00 L85.00,99.50 L86.00,99.50 L87.00,99.50 L87.50,100.00 L88.00,100.50 L89.00,100.50 L90.00,100.50 L90.50,101.00 L91.00,101.50 L92.00,101.50 L93.00,101.50 L93.50,102.00 L94.00,102.50 L95.00,102.50 L96.00,102.50 L97.00,102.50 L97.50,103.00 L98.00,103.50 L99.00,103.50 L100.00,103.50 L101.00,103.50 L101.50,104.00 L102.00,104.50 L103.00,104.50 L104.00,104.50 L105.00,104.50 L106.00,104.50 L106.50,105.00 L107.00,105.50 L108.00,105.50 L109.00,105.50 L110.00,105.50 L111.00,105.50 L111.50,106.00 L112.00,106.50 L113.00,106.50 L114.00,106.50 L115.00,106.50 L115.50,106.00 L115.00,105.50 L114.00,105.50 L113.50,105.00 L113.00,104.50 L112.00,104.50 L111.50,104.00 L111.00,103.50 L110.00,103.50 L109.50,103.00 L109.00,102.50 L108.00,102.50 L107.50,102.00 L107.00,101.50 L106.50,101.00 L106.00,100.50 L105.50,100.00 L105.00,99.50 L104.50,99.00 L104.50,98.00 L104.00,97.50 L103.50,97.00 L103.50,96.00 L103.00,95.50 L102.50,95.00 L102.50,94.00 L102.50,93.00 L102.50,92.00 L102.50,91.00 L102.50,90.00 L102.50,89.00 L103.00,88.50 L103.50,88.00 L103.50,87.00 L104.00,86.50 L104.50,86.00 L104.50,85.00 L105.00,84.50 L105.50,84.00 L106.00,83.50 L106.50,83.00 L107.00,82.50 L107.50,82.00 L108.00,81.50 L108.50,81.00 L109.00,80.50 L109.50,80.00 L110.00,79.50 L110.50,79.00 L111.00,78.50 L111.50,78.00 L112.00,77.50 L112.50,77.00 L113.00,76.50 L114.00,76.50 L114.50,76.00 L115.00,75.50 L115.50,75.00 L116.00,74.50 L117.00,74.50 L117.50,74.00 L118.00,73.50 L119.00,73.50 L119.50,73.00 L120.00,72.50 L120.50,72.00 L121.00,71.50 L122.00,71.50 L122.50,71.00 L123.00,70.50 L124.00,70.50 L125.00,70.50 L125.50,70.00 L126.00,69.50 L127.00,69.50 L127.50,69.00 L128.00,68.50 L129.00,68.50 L130.00,68.50 L130.50,68.00 L131.00,67.50 L132.00,67.50 L132.50,67.00 L133.00,66.50 L134.00,66.50 L135.00,66.50 L135.50,66.00 L136.00,65.50 L137.00,65.50 L138.00,65.50 L138.50,65.00 L139.00,64.50 L140.00,64.50 L141.00,64.50 L141.50,64.00 L142.00,63.50 L143.00,63.50 L144.00,63.50 L144.50,63.00 L145.00,62.50 L146.00,62.50 L147.00,62.50 L148.00,62.50 L148.50,62.00 L149.00,61.50 L150.00,61.50 L151.00,61.50 L152.00,61.50 L152.50,61.00 L153.00,60.50 L154.00,60.50 L155.00,60.50 L156.00,60.50 L156.50,60.00 L157.00,59.50 L158.00,59.50 L159.00,59.50 L160.00,59.50 L161.00,59.50 L161.50,59.00 L162.00,58.50 L163.00,58.50 L164.00,58.50 L165.00,58.50 L166.00,58.50 L166.50,58.00 L167.00,57.50 L168.00,57.50 L169.00,57.50 L170.00,57.50 L171.00,57.50 L172.00,57.50 L173.00,57.50 L174.00,57.50 L174.50,57.00 L175.00,56.50 L176.00,56.50 L177.00,56.50 L178.00,56.50 L179.00,56.50 L180.00,56.50 L181.00,56.50 L182.00,56.50 L183.00,56.50 L184.00,56.50 L185.00,56.50 L185.50,56.00 L186.00,55.50 L187.00,55.50 L188.00,55.50 L189.00,55.50 L190.00,55.50 L191.00,55.50 L192.00,55.50 L193.00,55.50 L194.00,55.50 L195.00,55.50 L196.00,55.50 L197.00,55.50 L198.00,55.50 L199.00,55.50 L200.00,55.50 L201.00,55.50 L202.00,55.50 L202.50,56.00 L203.00,56.50 L204.00,56.50 L205.00,56.50 L206.00,56.50 L207.00,56.50 L208.00,56.50 L209.00,56.50 L210.00,56.50 L211.00,56.50 L212.00,56.50 L213.00,56.50 L214.00,56.50 L215.00,56.50 L215.50,57.00 L216.00,57.50 L217.00,57.50 L218.00,57.50 L219.00,57.50 L220.00,57.50 L221.00,57.50 L221.50,58.00 L222.00,58.50 L223.00,58.50 L224.00,58.50 L225.00,58.50 L226.00,58.50 L226.50,59.00 L227.00,59.50 L228.00,59.50 L229.00,59.50 L230.00,59.50 L230.50,60.00 L231.00,60.50 L232.00,60.50 L233.00,60.50 L233.50,61.00 L234.00,61.50 L235.00,61.50 L236.00,61.50 L236.50,62.00 L237.00,62.50 L238.00,62.50 L238.50,63.00 L239.00,63.50 L240.00,63.50 L241.00,63.50 L241.50,64.00 L242.00,64.50 L243.00,64.50 L243.50,65.00 L244.00,65.50 L244.50,66.00 L245.00,66.50 L246.00,66.50 L246.50,67.00 L247.00,67.50 L247.50,68.00 L248.00,68.50 L248.50,69.00 L249.00,69.50 L250.00,69.50 L250.50,70.00 L251.00,70.50 L251.50,71.00 L251.50,72.00 L252.00,72.50 L252.50,73.00 L253.00,73.50 L253.50,74.00 L253.50,75.00 L254.00,75.50 L254.50,76.00 L254.50,77.00 L254.50,78.00 L255.00,78.50 L255.50,79.00 L255.50,80.00 L255.50,81.00 L255.50,82.00 L255.50,83.00 L255.00,83.50 L254.50,84.00 L254.50,85.00 L254.50,86.00 L254.50,87.00 L254.00,87.50 L253.50,88.00 L253.50,89.00 L253.00,89.50 L252.50,90.00 L252.50,91.00 L252.00,91.50 L251.50,92.00 L251.50,93.00 L251.00,93.50 L250.50,94.00 L250.00,94.50 L249.50,95.00 L249.00,95.50 L248.50,96.00 L248.50,97.00 L248.00,97.50 L247.50,98.00 L247.00,98.50 L246.50,99.00 L246.00,99.50 L245.50,100.00 L245.00,100.50 L244.50,101.00 L244.00,101.50 L243.50,102.00 L243.00,102.50 L242.50,103.00 L242.00,103.50 L241.00,103.50 L240.50,104.00 L240.00,104.50 L239.50,105.00 L239.00,105.50 L238.50,106.00 L238.00,106.50 L237.00,106.50 L236.50,107.00 L236.00,107.50 L235.50,108.00 L235.00,108.50 L234.50,109.00 L234.00,109.50 L233.00,109.50 L232.50,110.00 L232.00,110.50 L231.50,111.00 L231.00,111.50 L230.00,111.50 L229.50,112.00 L229.00,112.50 L228.00,112.50 L227.50,113.00 L227.00,113.50 L226.50,114.00 L226.00,114.50 L225.00,114.50 L224.50,115.00 L224.00,115.50 L223.00,115.50 L222.50,116.00 L222.00,116.50 L221.00,116.50 L220.50,117.00 L220.00,117.50 L219.50,118.00 L219.00,118.50 L218.00,118.50 L217.00,118.50 L216.50,119.00 L216.00,119.50 L215.00,119.50 L214.50,120.00 L214.00,120.50 L213.50,121.00 L213.00,121.50 L212.00,121.50 L211.00,121.50 L210.50,122.00 L210.00,122.50 L209.00,122.50 L208.50,123.00 L208.00,123.50 L207.00,123.50 L206.00,123.50 L205.50,124.00 L205.00,124.50 L204.00,124.50 L203.50,125.00 L203.00,125.50 L202.00,125.50 L201.00,125.50 L200.50,126.00 L200.00,126.50 L199.00,126.50 L198.50,127.00 L198.00,127.50 L197.00,127.50 L196.00,127.50 L195.50,128.00 L195.00,128.50 L194.00,128.50 L193.50,129.00 L193.00,129.50 L192.00,129.50 L191.00,129.50 L190.00,129.50 L189.50,130.00 L189.00,130.50 L188.00,130.50 L187.50,131.00 L187.00,131.50 L186.00,131.50 L185.00,131.50 L184.00,131.50 L183.50,132.00 L183.00,132.50 L182.00,132.50 L181.00,132.50 L180.50,133.00 L180.00,133.50 L179.00,133.50 L178.00,133.50 L177.00,133.50 L176.50,134.00 L176.00,134.50 L175.00,134.50 L174.00,134.50 L173.00,134.50 L172.50,135.00 L172.00,135.50 L171.00,135.50 L170.00,135.50 L169.00,135.50 L168.50,136.00 L168.00,136.50 L167.00,136.50 L166.00,136.50 L165.00,136.50 L164.00,136.50 L163.50,137.00 L163.00,137.50 L162.00,137.50 L161.00,137.50 L160.00,137.50 L159.00,137.50 L158.50,138.00 L158.00,138.50 L157.00,138.50 L156.00,138.50 L155.00,138.50 L154.00,138.50 L153.00,138.50 L152.50,139.00 L152.00,139.50 L151.00,139.50 L150.00,139.50 L149.00,139.50 L148.00,139.50 L147.00,139.50 L146.00,139.50 L145.00,139.50 L144.00,139.50 L143.50,140.00 L143.00,140.50 Z" fill="black"/><path d="M265.00,67.50 L264.50,67.00 L265.00,66.50 L265.50,67.00 L265.00,67.50 Z" fill="black"/><path d="M142.00,158.50 L141.00,158.50 L140.00,158.50 L139.00,158.50 L138.00,158.50 L137.00,158.50 L136.00,158.50 L135.00,158.50 L134.00,158.50 L133.00,158.50 L132.00,158.50 L131.00,158.50 L130.00,158.50 L129.00,158.50 L128.50,158.00 L128.00,157.50 L127.00,157.50 L126.00,157.50 L125.00,157.50 L124.00,157.50 L123.00,157.50 L122.50,157.00 L122.00,156.50 L121.00,156.50 L120.00,156.50 L119.00,156.50 L118.50,156.00 L118.00,155.50 L117.00,155.50 L116.00,155.50 L115.50,155.00 L115.00,154.50 L114.00,154.50 L113.50,154.00 L113.00,153.50 L112.00,153.50 L111.50,153.00 L111.00,152.50 L110.50,152.00 L110.00,151.50 L109.50,151.00 L109.00,150.50 L108.50,150.00 L108.50,149.00 L109.00,148.50 L110.00,148.50 L110.50,149.00 L111.00,149.50 L112.00,149.50 L113.00,149.50 L114.00,149.50 L115.00,149.50 L116.00,149.50 L117.00,149.50 L117.50,150.00 L118.00,150.50 L119.00,150.50 L120.00,150.50 L121.00,150.50 L122.00,150.50 L123.00,150.50 L124.00,150.50 L125.00,150.50 L126.00,150.50 L127.00,150.50 L128.00,150.50 L129.00,150.50 L130.00,150.50 L131.00,150.50 L132.00,150.50 L133.00,150.50 L134.00,150.50 L134.50,150.00 L135.00,149.50 L136.00,149.50 L137.00,149.50 L138.00,149.50 L139.00,149.50 L140.00,149.50 L141.00,149.50 L142.00,149.50 L143.00,149.50 L144.00,149.50 L144.50,149.00 L145.00,148.50 L146.00,148.50 L147.00,148.50 L148.00,148.50 L149.00,148.50 L150.00,148.50 L150.50,148.00 L151.00,147.50 L152.00,147.50 L153.00,147.50 L154.00,147.50 L155.00,147.50 L155.50,147.00 L156.00,146.50 L157.00,146.50 L158.00,146.50 L159.00,146.50 L160.00,146.50 L160.50,146.00 L161.00,145.50 L162.00,145.50 L163.00,145.50 L164.00,145.50 L164.50,145.00 L165.00,144.50 L166.00,144.50 L167.00,144.50 L168.00,144.50 L168.50,144.00 L169.00,143.50 L170.00,143.50 L171.00,143.50 L172.00,143.50 L172.50,143.00 L173.00,142.50 L174.00,142.50 L175.00,142.50 L175.50,142.00 L176.00,141.50 L177.00,141.50 L178.00,141.50 L178.50,141.00 L179.00,140.50 L180.00,140.50 L181.00,140.50 L181.50,140.00 L182.00,139.50 L183.00,139.50 L184.00,139.50 L184.50,139.00 L185.00,138.50 L186.00,138.50 L187.00,138.50 L187.50,138.00 L188.00,137.50 L189.00,137.50 L190.00,137.50 L190.50,137.00 L191.00,136.50 L192.00,136.50 L193.00,136.50 L193.50,136.00 L194.00,135.50 L195.00,135.50 L196.00,135.50 L196.50,135.00 L197.00,134.50 L198.00,134.50 L199.00,134.50 L199.50,134.00 L200.00,133.50 L201.00,133.50 L201.50,133.00 L202.00,132.50 L203.00,132.50 L204.00,132.50 L204.50,132.00 L205.00,131.50 L206.00,131.50 L206.50,131.00 L207.00,130.50 L208.00,130.50 L209.00,130.50 L209.50,130.00 L210.00,129.50 L211.00,129.50 L211.50,129.00 L212.00,128.50 L213.00,128.50 L213.50,128.00 L214.00,127.50 L215.00,127.50 L215.50,127.00 L216.00,126.50 L217.00,126.50 L217.50,126.00 L218.00,125.50 L219.00,125.50 L219.50,125.00 L220.00,124.50 L221.00,124.50 L221.50,124.00 L222.00,123.50 L223.00,123.50 L224.00,123.50 L224.50,123.00 L225.00,122.50 L226.00,122.50 L226.50,122.00 L227.00,121.50 L227.50,121.00 L228.00,120.50 L229.00,120.50 L229.50,120.00 L230.00,119.50 L231.00,119.50 L231.50,119.00 L232.00,118.50 L233.00,118.50 L233.50,118.00 L234.00,117.50 L235.00,117.50 L235.50,117.00 L236.00,116.50 L236.50,116.00 L237.00,115.50 L238.00,115.50 L238.50,115.00 L239.00,114.50 L240.00,114.50 L240.50,114.00 L241.00,113.50 L241.50,113.00 L242.00,112.50 L243.00,112.50 L243.50,112.00 L244.00,111.50 L244.50,111.00 L245.00,110.50 L246.00,110.50 L246.50,110.00 L247.00,109.50 L247.50,109.00 L248.00,108.50 L248.50,108.00 L249.00,107.50 L250.00,107.50 L250.50,107.00 L251.00,106.50 L251.50,106.00 L252.00,105.50 L252.50,105.00 L253.00,104.50 L254.00,104.50 L254.50,104.00 L255.00,103.50 L255.50,103.00 L256.00,102.50 L256.50,102.00 L257.00,101.50 L257.50,101.00 L258.00,100.50 L258.50,100.00 L259.00,99.50 L259.50,99.00 L260.00,98.50 L260.50,98.00 L261.00,97.50 L261.50,97.00 L262.00,96.50 L262.50,96.00 L263.00,95.50 L263.50,95.00 L264.00,94.50 L264.50,94.00 L264.50,93.00 L265.00,92.50 L265.50,92.00 L266.00,91.50 L266.50,91.00 L266.50,90.00 L267.00,89.50 L267.50,89.00 L267.50,88.00 L268.00,87.50 L268.50,87.00 L268.50,86.00 L269.00,85.50 L269.50,85.00 L269.50,84.00 L269.50,83.00 L269.50,82.00 L270.00,81.50 L270.50,81.00 L270.50,80.00 L270.50,79.00 L270.50,78.00 L270.50,77.00 L270.00,76.50 L269.50,76.00 L269.50,75.00 L269.50,74.00 L269.00,73.50 L268.50,73.00 L268.50,72.00 L268.00,71.50 L267.50,71.00 L267.50,70.00 L267.00,69.50 L266.50,69.00 L266.00,68.50 L265.50,68.00 L266.00,67.50 L267.00,67.50 L267.50,68.00 L268.00,68.50 L269.00,68.50 L269.50,69.00 L270.00,69.50 L270.50,70.00 L271.00,70.50 L271.50,71.00 L272.00,71.50 L272.50,72.00 L273.00,72.50 L273.50,73.00 L274.00,73.50 L274.50,74.00 L274.50,75.00 L275.00,75.50 L275.50,76.00 L275.50,77.00 L276.00,77.50 L276.50,78.00 L276.50,79.00 L276.50,80.00 L277.00,80.50 L277.50,81.00 L277.50,82.00 L277.50,83.00 L277.50,84.00 L277.50,85.00 L277.50,86.00 L277.50,87.00 L277.50,88.00 L277.00,88.50 L276.50,89.00 L276.50,90.00 L276.50,91.00 L276.50,92.00 L276.00,92.50 L275.50,93.00 L275.50,94.00 L275.00,94.50 L274.50,95.00 L274.50,96.00 L274.00,96.50 L273.50,97.00 L273.50,98.00 L273.00,98.50 L272.50,99.00 L272.00,99.50 L271.50,100.00 L271.00,100.50 L270.50,101.00 L270.50,102.00 L270.00,102.50 L269.50,103.00 L269.00,103.50 L268.50,104.00 L268.00,104.50 L267.50,105.00 L267.00,105.50 L266.50,106.00 L266.00,106.50 L265.50,107.00 L265.00,107.50 L264.50,108.00 L264.00,108.50 L263.50,109.00 L263.00,109.50 L262.50,110.00 L262.00,110.50 L261.50,111.00 L261.00,111.50 L260.50,112.00 L260.00,112.50 L259.50,113.00 L259.00,113.50 L258.50,114.00 L258.00,114.50 L257.00,114.50 L256.50,115.00 L256.00,115.50 L255.50,116.00 L255.00,116.50 L254.50,117.00 L254.00,117.50 L253.00,117.50 L252.50,118.00 L252.00,118.50 L251.50,119.00 L251.00,119.50 L250.00,119.50 L249.50,120.00 L249.00,120.50 L248.50,121.00 L248.00,121.50 L247.00,121.50 L246.50,122.00 L246.00,122.50 L245.50,123.00 L245.00,123.50 L244.00,123.50 L243.50,124.00 L243.00,124.50 L242.50,125.00 L242.00,125.50 L241.00,125.50 L240.50,126.00 L240.00,126.50 L239.00,126.50 L238.50,127.00 L238.00,127.50 L237.50,128.00 L237.00,128.50 L236.00,128.50 L235.50,129.00 L235.00,129.50 L234.00,129.50 L233.50,130.00 L233.00,130.50 L232.00,130.50 L231.50,131.00 L231.00,131.50 L230.00,131.50 L229.50,132.00 L229.00,132.50 L228.00,132.50 L227.50,133.00 L227.00,133.50 L226.00,133.50 L225.50,134.00 L225.00,134.50 L224.00,134.50 L223.50,135.00 L223.00,135.50 L222.00,135.50 L221.50,136.00 L221.00,136.50 L220.00,136.50 L219.50,137.00 L219.00,137.50 L218.00,137.50 L217.50,138.00 L217.00,138.50 L216.00,138.50 L215.00,138.50 L214.50,139.00 L214.00,139.50 L213.00,139.50 L212.50,140.00 L212.00,140.50 L211.00,140.50 L210.50,141.00 L210.00,141.50 L209.00,141.50 L208.50,142.00 L208.00,142.50 L207.00,142.50 L206.00,142.50 L205.50,143.00 L205.00,143.50 L204.00,143.50 L203.00,143.50 L202.50,144.00 L202.00,144.50 L201.00,144.50 L200.50,145.00 L200.00,145.50 L199.00,145.50 L198.00,145.50 L197.50,146.00 L197.00,146.50 L196.00,146.50 L195.00,146.50 L194.50,147.00 L194.00,147.50 L193.00,147.50 L192.00,147.50 L191.50,148.00 L191.00,148.50 L190.00,148.50 L189.00,148.50 L188.50,149.00 L188.00,149.50 L187.00,149.50 L186.00,149.50 L185.50,150.00 L185.00,150.50 L184.00,150.50 L183.00,150.50 L182.50,151.00 L182.00,151.50 L181.00,151.50 L180.00,151.50 L179.00,151.50 L178.50,152.00 L178.00,152.50 L177.00,152.50 L176.00,152.50 L175.00,152.50 L174.50,153.00 L174.00,153.50 L173.00,153.50 L172.00,153.50 L171.00,153.50 L170.50,154.00 L170.00,154.50 L169.00,154.50 L168.00,154.50 L167.00,154.50 L166.00,154.50 L165.50,155.00 L165.00,155.50 L164.00,155.50 L163.00,155.50 L162.00,155.50 L161.00,155.50 L160.50,156.00 L160.00,156.50 L159.00,156.50 L158.00,156.50 L157.00,156.50 L156.00,156.50 L155.00,156.50 L154.00,156.50 L153.00,156.50 L152.50,157.00 L152.00,157.50 L151.00,157.50 L150.00,157.50 L149.00,157.50 L148.00,157.50 L147.00,157.50 L146.00,157.50 L145.00,157.50 L144.00,157.50 L143.00,157.50 L142.50,158.00 L142.00,158.50 Z" fill="black"/><path d="M236.00,83.50 L235.50,83.00 L236.00,82.50 L236.50,83.00 L236.00,83.50 Z" fill="black"/><path d="M85.00,90.50 L84.50,90.00 L85.00,89.50 L85.50,90.00 L85.00,90.50 Z" fill="black"/><path d="M222.00,95.50 L221.50,95.00 L221.50,94.00 L222.00,93.50 L222.50,94.00 L222.50,95.00 L222.00,95.50 Z" fill="black"/><path d="M166.00,171.50 L165.00,171.50 L164.00,171.50 L163.00,171.50 L162.00,171.50 L161.00,171.50 L160.00,171.50 L159.00,171.50 L158.00,171.50 L157.00,171.50 L156.00,171.50 L155.00,171.50 L154.00,171.50 L153.00,171.50 L152.00,171.50 L151.00,171.50 L150.00,171.50 L149.00,171.50 L148.00,171.50 L147.50,171.00 L147.00,170.50 L146.00,170.50 L145.00,170.50 L144.00,170.50 L143.50,170.00 L143.00,169.50 L142.00,169.50 L141.50,169.00 L141.00,168.50 L140.00,168.50 L139.50,168.00 L139.00,167.50 L138.00,167.50 L137.50,167.00 L137.00,166.50 L136.50,166.00 L136.00,165.50 L135.50,165.00 L136.00,164.50 L137.00,164.50 L138.00,164.50 L138.50,165.00 L139.00,165.50 L140.00,165.50 L141.00,165.50 L141.50,165.00 L142.00,164.50 L143.00,164.50 L144.00,164.50 L145.00,164.50 L146.00,164.50 L147.00,164.50 L148.00,164.50 L149.00,164.50 L150.00,164.50 L151.00,164.50 L152.00,164.50 L153.00,164.50 L153.50,164.00 L154.00,163.50 L155.00,163.50 L156.00,163.50 L157.00,163.50 L158.00,163.50 L159.00,163.50 L159.50,163.00 L160.00,162.50 L161.00,162.50 L162.00,162.50 L163.00,162.50 L164.00,162.50 L164.50,162.00 L165.00,161.50 L166.00,161.50 L167.00,161.50 L168.00,161.50 L168.50,161.00 L169.00,160.50 L170.00,160.50 L171.00,160.50 L172.00,160.50 L173.00,160.50 L173.50,160.00 L174.00,159.50 L175.00,159.50 L176.00,159.50 L177.00,159.50 L177.50,159.00 L178.00,158.50 L179.00,158.50 L180.00,158.50 L180.50,158.00 L181.00,157.50 L182.00,157.50 L183.00,157.50 L184.00,157.50 L184.50,157.00 L185.00,156.50 L186.00,156.50 L187.00,156.50 L187.50,156.00 L188.00,155.50 L189.00,155.50 L190.00,155.50 L190.50,155.00 L191.00,154.50 L192.00,154.50 L193.00,154.50 L193.50,154.00 L194.00,153.50 L195.00,153.50 L196.00,153.50 L196.50,153.00 L197.00,152.50 L198.00,152.50 L199.00,152.50 L199.50,152.00 L200.00,151.50 L201.00,151.50 L202.00,151.50 L202.50,151.00 L203.00,150.50 L204.00,150.50 L205.00,150.50 L205.50,150.00 L206.00,149.50 L207.00,149.50 L207.50,149.00 L208.00,148.50 L209.00,148.50 L210.00,148.50 L210.50,148.00 L211.00,147.50 L212.00,147.50 L213.00,147.50 L213.50,147.00 L214.00,146.50 L215.00,146.50 L215.50,146.00 L216.00,145.50 L217.00,145.50 L217.50,145.00 L218.00,144.50 L219.00,144.50 L220.00,144.50 L220.50,144.00 L221.00,143.50 L222.00,143.50 L222.50,143.00 L223.00,142.50 L224.00,142.50 L224.50,142.00 L225.00,141.50 L226.00,141.50 L226.50,141.00 L227.00,140.50 L228.00,140.50 L228.50,140.00 L229.00,139.50 L230.00,139.50 L230.50,139.00 L231.00,138.50 L232.00,138.50 L232.50,138.00 L233.00,137.50 L234.00,137.50 L234.50,137.00 L235.00,136.50 L236.00,136.50 L236.50,136.00 L237.00,135.50 L238.00,135.50 L238.50,135.00 L239.00,134.50 L240.00,134.50 L240.50,134.00 L241.00,133.50 L241.50,133.00 L242.00,132.50 L243.00,132.50 L243.50,132.00 L244.00,131.50 L245.00,131.50 L245.50,131.00 L246.00,130.50 L247.00,130.50 L247.50,130.00 L248.00,129.50 L248.50,129.00 L249.00,128.50 L250.00,128.50 L250.50,128.00 L251.00,127.50 L251.50,127.00 L252.00,126.50 L253.00,126.50 L253.50,126.00 L254.00,125.50 L254.50,126.00 L254.50,127.00 L254.50,128.00 L254.50,129.00 L254.00,129.50 L253.50,130.00 L253.50,131.00 L253.50,132.00 L253.00,132.50 L252.50,133.00 L252.50,134.00 L252.00,134.50 L251.50,135.00 L251.50,136.00 L251.00,136.50 L250.50,137.00 L250.00,137.50 L249.50,138.00 L249.50,139.00 L249.00,139.50 L248.50,140.00 L248.00,140.50 L247.50,141.00 L247.00,141.50 L246.50,142.00 L246.00,142.50 L245.00,142.50 L244.50,143.00 L244.00,143.50 L243.50,144.00 L243.00,144.50 L242.50,145.00 L242.00,145.50 L241.50,146.00 L241.00,146.50 L240.00,146.50 L239.50,147.00 L239.00,147.50 L238.00,147.50 L237.50,148.00 L237.00,148.50 L236.50,149.00 L236.00,149.50 L235.00,149.50 L234.50,150.00 L234.00,150.50 L233.00,150.50 L232.50,151.00 L232.00,151.50 L231.00,151.50 L230.50,152.00 L230.00,152.50 L229.00,152.50 L228.50,153.00 L228.00,153.50 L227.00,153.50 L226.50,154.00 L226.00,154.50 L225.00,154.50 L224.50,155.00 L224.00,155.50 L223.00,155.50 L222.00,155.50 L221.50,156.00 L221.00,156.50 L220.00,156.50 L219.50,157.00 L219.00,157.50 L218.00,157.50 L217.00,157.50 L216.50,158.00 L216.00,158.50 L215.00,158.50 L214.50,159.00 L214.00,159.50 L213.00,159.50 L212.00,159.50 L211.50,160.00 L211.00,160.50 L210.00,160.50 L209.00,160.50 L208.50,161.00 L208.00,161.50 L207.00,161.50 L206.00,161.50 L205.50,162.00 L205.00,162.50 L204.00,162.50 L203.00,162.50 L202.50,163.00 L202.00,163.50 L201.00,163.50 L200.00,163.50 L199.50,164.00 L199.00,164.50 L198.00,164.50 L197.00,164.50 L196.50,165.00 L196.00,165.50 L195.00,165.50 L194.00,165.50 L193.00,165.50 L192.50,166.00 L192.00,166.50 L191.00,166.50 L190.00,166.50 L189.00,166.50 L188.50,167.00 L188.00,167.50 L187.00,167.50 L186.00,167.50 L185.00,167.50 L184.50,168.00 L184.00,168.50 L183.00,168.50 L182.00,168.50 L181.00,168.50 L180.00,168.50 L179.50,169.00 L179.00,169.50 L178.00,169.50 L177.00,169.50 L176.00,169.50 L175.00,169.50 L174.50,170.00 L174.00,170.50 L173.00,170.50 L172.00,170.50 L171.00,170.50 L170.00,170.50 L169.00,170.50 L168.00,170.50 L167.00,170.50 L166.50,171.00 L166.00,171.50 Z" fill="black"/><path d="M160.00,187.50 L159.00,187.50 L158.00,187.50 L157.00,187.50 L156.00,187.50 L155.00,187.50 L154.50,187.00 L154.00,186.50 L153.00,186.50 L152.00,186.50 L151.00,186.50 L150.00,186.50 L149.00,186.50 L148.00,186.50 L147.00,186.50 L146.50,186.00 L146.00,185.50 L145.00,185.50 L144.00,185.50 L143.00,185.50 L142.50,185.00 L142.00,184.50 L141.00,184.50 L140.50,184.00 L140.00,183.50 L139.50,183.00 L139.00,182.50 L138.00,182.50 L137.50,182.00 L137.50,181.00 L137.00,180.50 L136.50,180.00 L136.50,179.00 L136.50,178.00 L136.50,177.00 L136.50,176.00 L137.00,175.50 L138.00,175.50 L138.50,176.00 L139.00,176.50 L140.00,176.50 L140.50,177.00 L141.00,177.50 L142.00,177.50 L143.00,177.50 L144.00,177.50 L145.00,177.50 L146.00,177.50 L147.00,177.50 L148.00,177.50 L148.50,178.00 L149.00,178.50 L150.00,178.50 L151.00,178.50 L152.00,178.50 L153.00,178.50 L153.50,178.00 L154.00,177.50 L155.00,177.50 L156.00,177.50 L157.00,177.50 L158.00,177.50 L159.00,177.50 L160.00,177.50 L161.00,177.50 L162.00,177.50 L163.00,177.50 L164.00,177.50 L165.00,177.50 L166.00,177.50 L166.50,177.00 L167.00,176.50 L168.00,176.50 L169.00,176.50 L170.00,176.50 L171.00,176.50 L172.00,176.50 L173.00,176.50 L173.50,176.00 L174.00,175.50 L175.00,175.50 L176.00,175.50 L177.00,175.50 L178.00,175.50 L178.50,175.00 L179.00,174.50 L180.00,174.50 L181.00,174.50 L182.00,174.50 L183.00,174.50 L183.50,174.00 L184.00,173.50 L185.00,173.50 L186.00,173.50 L187.00,173.50 L188.00,173.50 L188.50,173.00 L189.00,172.50 L190.00,172.50 L191.00,172.50 L192.00,172.50 L192.50,172.00 L193.00,171.50 L194.00,171.50 L195.00,171.50 L196.00,171.50 L196.50,171.00 L197.00,170.50 L198.00,170.50 L199.00,170.50 L199.50,170.00 L200.00,169.50 L201.00,169.50 L202.00,169.50 L202.50,169.00 L203.00,168.50 L204.00,168.50 L205.00,168.50 L206.00,168.50 L206.50,168.00 L207.00,167.50 L208.00,167.50 L209.00,167.50 L209.50,167.00 L210.00,166.50 L211.00,166.50 L212.00,166.50 L212.50,166.00 L213.00,165.50 L214.00,165.50 L215.00,165.50 L215.50,165.00 L216.00,164.50 L217.00,164.50 L218.00,164.50 L218.50,164.00 L219.00,163.50 L220.00,163.50 L220.50,163.00 L221.00,162.50 L222.00,162.50 L222.50,162.00 L223.00,161.50 L224.00,161.50 L225.00,161.50 L225.50,161.00 L226.00,160.50 L227.00,160.50 L227.50,160.00 L228.00,159.50 L229.00,159.50 L229.50,159.00 L230.00,158.50 L231.00,158.50 L232.00,158.50 L232.50,158.00 L233.00,157.50 L234.00,157.50 L234.50,157.00 L235.00,156.50 L236.00,156.50 L236.50,156.00 L237.00,155.50 L238.00,155.50 L238.50,156.00 L238.50,157.00 L238.00,157.50 L237.50,158.00 L237.00,158.50 L236.50,159.00 L236.50,160.00 L236.00,160.50 L235.50,161.00 L235.00,161.50 L234.50,162.00 L234.00,162.50 L233.50,163.00 L233.00,163.50 L232.50,164.00 L232.00,164.50 L231.50,165.00 L231.00,165.50 L230.50,166.00 L230.00,166.50 L229.50,167.00 L229.00,167.50 L228.00,167.50 L227.50,168.00 L227.00,168.50 L226.50,169.00 L226.00,169.50 L225.50,170.00 L225.00,170.50 L224.00,170.50 L223.50,171.00 L223.00,171.50 L222.00,171.50 L221.50,172.00 L221.00,172.50 L220.00,172.50 L219.50,173.00 L219.00,173.50 L218.00,173.50 L217.50,174.00 L217.00,174.50 L216.00,174.50 L215.50,175.00 L215.00,175.50 L214.00,175.50 L213.50,176.00 L213.00,176.50 L212.00,176.50 L211.50,177.00 L211.00,177.50 L210.00,177.50 L209.00,177.50 L208.50,178.00 L208.00,178.50 L207.00,178.50 L206.00,178.50 L205.50,179.00 L205.00,179.50 L204.00,179.50 L203.00,179.50 L202.50,180.00 L202.00,180.50 L201.00,180.50 L200.00,180.50 L199.50,181.00 L199.00,181.50 L198.00,181.50 L197.00,181.50 L196.00,181.50 L195.50,182.00 L195.00,182.50 L194.00,182.50 L193.00,182.50 L192.00,182.50 L191.00,182.50 L190.50,183.00 L190.00,183.50 L189.00,183.50 L188.00,183.50 L187.00,183.50 L186.50,184.00 L186.00,184.50 L185.00,184.50 L184.00,184.50 L183.00,184.50 L182.00,184.50 L181.00,184.50 L180.50,185.00 L180.00,185.50 L179.00,185.50 L178.00,185.50 L177.00,185.50 L176.00,185.50 L175.00,185.50 L174.00,185.50 L173.50,186.00 L173.00,186.50 L172.00,186.50 L171.00,186.50 L170.00,186.50 L169.00,186.50 L168.00,186.50 L167.00,186.50 L166.00,186.50 L165.00,186.50 L164.00,186.50 L163.00,186.50 L162.00,186.50 L161.00,186.50 L160.50,187.00 L160.00,187.50 Z" fill="black"/><path d="M160.00,201.50 L159.00,201.50 L158.00,201.50 L157.00,201.50 L156.00,201.50 L155.00,201.50 L154.00,201.50 L153.00,201.50 L152.00,201.50 L151.00,201.50 L150.00,201.50 L149.00,201.50 L148.00,201.50 L147.00,201.50 L146.00,201.50 L145.00,201.50 L144.00,201.50 L143.00,201.50 L142.00,201.50 L141.00,201.50 L140.00,201.50 L139.00,201.50 L138.50,201.00 L138.00,200.50 L137.00,200.50 L136.00,200.50 L135.00,200.50 L134.50,200.00 L134.00,199.50 L133.00,199.50 L132.00,199.50 L131.50,199.00 L131.00,198.50 L130.50,198.00 L130.00,197.50 L129.50,197.00 L129.50,196.00 L130.00,195.50 L130.50,195.00 L130.50,194.00 L131.00,193.50 L131.50,193.00 L132.00,192.50 L132.50,192.00 L132.50,191.00 L133.00,190.50 L133.50,190.00 L134.00,189.50 L134.50,189.00 L135.00,188.50 L136.00,188.50 L136.50,189.00 L137.00,189.50 L138.00,189.50 L138.50,190.00 L139.00,190.50 L140.00,190.50 L141.00,190.50 L141.50,191.00 L142.00,191.50 L143.00,191.50 L144.00,191.50 L145.00,191.50 L146.00,191.50 L147.00,191.50 L148.00,191.50 L148.50,192.00 L149.00,192.50 L150.00,192.50 L151.00,192.50 L152.00,192.50 L153.00,192.50 L154.00,192.50 L155.00,192.50 L156.00,192.50 L157.00,192.50 L158.00,192.50 L159.00,192.50 L159.50,192.00 L160.00,191.50 L161.00,191.50 L162.00,191.50 L163.00,191.50 L164.00,191.50 L165.00,191.50 L166.00,191.50 L167.00,191.50 L168.00,191.50 L169.00,191.50 L170.00,191.50 L171.00,191.50 L171.50,191.00 L172.00,190.50 L173.00,190.50 L174.00,190.50 L175.00,190.50 L176.00,190.50 L177.00,190.50 L178.00,190.50 L178.50,190.00 L179.00,189.50 L180.00,189.50 L181.00,189.50 L182.00,189.50 L183.00,189.50 L184.00,189.50 L184.50,189.00 L185.00,188.50 L186.00,188.50 L187.00,188.50 L188.00,188.50 L189.00,188.50 L189.50,188.00 L190.00,187.50 L191.00,187.50 L192.00,187.50 L193.00,187.50 L194.00,187.50 L194.50,187.00 L195.00,186.50 L196.00,186.50 L197.00,186.50 L198.00,186.50 L199.00,186.50 L199.50,186.00 L200.00,185.50 L201.00,185.50 L202.00,185.50 L202.50,185.00 L203.00,184.50 L204.00,184.50 L205.00,184.50 L206.00,184.50 L206.50,184.00 L207.00,183.50 L208.00,183.50 L209.00,183.50 L209.50,183.00 L210.00,182.50 L211.00,182.50 L211.50,183.00 L211.00,183.50 L210.50,184.00 L210.00,184.50 L209.00,184.50 L208.50,185.00 L208.00,185.50 L207.00,185.50 L206.50,186.00 L206.00,186.50 L205.00,186.50 L204.50,187.00 L204.00,187.50 L203.00,187.50 L202.50,188.00 L202.00,188.50 L201.00,188.50 L200.50,189.00 L200.00,189.50 L199.00,189.50 L198.50,190.00 L198.00,190.50 L197.00,190.50 L196.50,191.00 L196.00,191.50 L195.00,191.50 L194.50,192.00 L194.00,192.50 L193.00,192.50 L192.50,193.00 L192.00,193.50 L191.00,193.50 L190.00,193.50 L189.50,194.00 L189.00,194.50 L188.00,194.50 L187.50,195.00 L187.00,195.50 L186.00,195.50 L185.00,195.50 L184.50,196.00 L184.00,196.50 L183.00,196.50 L182.00,196.50 L181.50,197.00 L181.00,197.50 L180.00,197.50 L179.00,197.50 L178.00,197.50 L177.50,198.00 L177.00,198.50 L176.00,198.50 L175.00,198.50 L174.00,198.50 L173.00,198.50 L172.00,198.50 L171.50,199.00 L171.00,199.50 L170.00,199.50 L169.00,199.50 L168.00,199.50 L167.00,199.50 L166.50,200.00 L166.00,200.50 L165.00,200.50 L164.00,200.50 L163.00,200.50 L162.00,200.50 L161.00,200.50 L160.50,201.00 L160.00,201.50 Z" fill="black"/><path d="M124.00,196.50 L123.50,196.00 L124.00,195.50 L124.50,196.00 L124.00,196.50 Z" fill="black"/><path d="M148.00,214.50 L147.00,214.50 L146.00,214.50 L145.00,214.50 L144.00,214.50 L143.00,214.50 L142.00,214.50 L141.00,214.50 L140.00,214.50 L139.00,214.50 L138.00,214.50 L137.00,214.50 L136.00,214.50 L135.00,214.50 L134.00,214.50 L133.00,214.50 L132.00,214.50 L131.00,214.50 L130.00,214.50 L129.00,214.50 L128.50,214.00 L128.00,213.50 L127.00,213.50 L126.00,213.50 L125.00,213.50 L124.50,213.00 L124.00,212.50 L123.00,212.50 L122.00,212.50 L121.50,212.00 L121.00,211.50 L120.50,211.00 L120.00,210.50 L119.50,210.00 L119.00,209.50 L118.50,209.00 L118.00,208.50 L117.50,208.00 L117.50,207.00 L117.50,206.00 L117.00,205.50 L116.50,205.00 L117.00,204.50 L117.50,204.00 L117.50,203.00 L117.50,202.00 L118.00,201.50 L118.50,201.00 L119.00,200.50 L119.50,200.00 L119.50,199.00 L120.00,198.50 L120.50,198.00 L121.00,197.50 L122.00,197.50 L122.50,197.00 L123.00,196.50 L123.50,197.00 L123.50,198.00 L123.00,198.50 L122.50,199.00 L122.50,200.00 L122.50,201.00 L123.00,201.50 L123.50,202.00 L124.00,202.50 L124.50,203.00 L125.00,203.50 L125.50,204.00 L126.00,204.50 L127.00,204.50 L127.50,205.00 L128.00,205.50 L129.00,205.50 L130.00,205.50 L131.00,205.50 L131.50,206.00 L132.00,206.50 L133.00,206.50 L134.00,206.50 L135.00,206.50 L136.00,206.50 L137.00,206.50 L138.00,206.50 L139.00,206.50 L140.00,206.50 L141.00,206.50 L142.00,206.50 L143.00,206.50 L144.00,206.50 L145.00,206.50 L146.00,206.50 L147.00,206.50 L148.00,206.50 L149.00,206.50 L150.00,206.50 L151.00,206.50 L152.00,206.50 L153.00,206.50 L153.50,206.00 L154.00,205.50 L155.00,205.50 L156.00,205.50 L157.00,205.50 L158.00,205.50 L159.00,205.50 L160.00,205.50 L160.50,205.00 L161.00,204.50 L162.00,204.50 L163.00,204.50 L164.00,204.50 L165.00,204.50 L166.00,204.50 L167.00,204.50 L168.00,204.50 L168.50,204.00 L169.00,203.50 L170.00,203.50 L171.00,203.50 L172.00,203.50 L173.00,203.50 L174.00,203.50 L174.50,203.00 L175.00,202.50 L176.00,202.50 L177.00,202.50 L178.00,202.50 L178.50,203.00 L178.00,203.50 L177.00,203.50 L176.50,204.00 L176.00,204.50 L175.00,204.50 L174.50,205.00 L174.00,205.50 L173.50,206.00 L173.00,206.50 L172.00,206.50 L171.00,206.50 L170.50,207.00 L170.00,207.50 L169.00,207.50 L168.50,208.00 L168.00,208.50 L167.00,208.50 L166.50,209.00 L166.00,209.50 L165.00,209.50 L164.50,210.00 L164.00,210.50 L163.00,210.50 L162.00,210.50 L161.50,211.00 L161.00,211.50 L160.00,211.50 L159.00,211.50 L158.50,212.00 L158.00,212.50 L157.00,212.50 L156.00,212.50 L155.00,212.50 L154.50,213.00 L154.00,213.50 L153.00,213.50 L152.00,213.50 L151.00,213.50 L150.00,213.50 L149.00,213.50 L148.50,214.00 L148.00,214.50 Z" fill="black"/><path d="M180.00,202.50 L179.00,202.50 L178.50,202.00 L179.00,201.50 L180.00,201.50 L180.50,202.00 L180.00,202.50 Z" fill="black"/><path d="M156.00,242.50 L155.00,242.50 L154.00,242.50 L153.50,242.00 L153.00,241.50 L152.00,241.50 L151.00,241.50 L150.00,241.50 L149.50,241.00 L149.00,240.50 L148.00,240.50 L147.50,240.00 L147.00,239.50 L146.00,239.50 L145.50,239.00 L145.00,238.50 L144.00,238.50 L143.50,238.00 L143.00,237.50 L142.50,237.00 L142.00,236.50 L141.00,236.50 L140.50,236.00 L140.00,235.50 L139.50,235.00 L139.00,234.50 L138.50,234.00 L138.00,233.50 L137.50,233.00 L137.50,232.00 L137.00,231.50 L136.50,231.00 L136.50,230.00 L137.00,229.50 L138.00,229.50 L139.00,229.50 L140.00,229.50 L140.50,229.00 L140.50,228.00 L140.00,227.50 L139.00,227.50 L138.00,227.50 L137.00,227.50 L136.00,227.50 L135.50,227.00 L135.00,226.50 L134.00,226.50 L133.00,226.50 L132.00,226.50 L131.50,226.00 L131.00,225.50 L130.50,225.00 L130.00,224.50 L129.00,224.50 L128.50,224.00 L128.00,223.50 L127.50,223.00 L127.00,222.50 L126.50,222.00 L126.00,221.50 L125.50,221.00 L125.50,220.00 L125.00,219.50 L124.50,219.00 L124.00,218.50 L123.50,218.00 L124.00,217.50 L125.00,217.50 L126.00,217.50 L127.00,217.50 L127.50,218.00 L128.00,218.50 L129.00,218.50 L130.00,218.50 L131.00,218.50 L132.00,218.50 L133.00,218.50 L134.00,218.50 L134.50,219.00 L135.00,219.50 L136.00,219.50 L137.00,219.50 L138.00,219.50 L138.50,219.00 L139.00,218.50 L140.00,218.50 L141.00,218.50 L142.00,218.50 L143.00,218.50 L144.00,218.50 L145.00,218.50 L146.00,218.50 L147.00,218.50 L148.00,218.50 L149.00,218.50 L149.50,218.00 L150.00,217.50 L151.00,217.50 L152.00,217.50 L153.00,217.50 L154.00,217.50 L154.50,217.00 L155.00,216.50 L156.00,216.50 L157.00,216.50 L158.00,216.50 L158.50,216.00 L159.00,215.50 L160.00,215.50 L161.00,215.50 L161.50,215.00 L162.00,214.50 L163.00,214.50 L163.50,215.00 L163.00,215.50 L162.50,216.00 L162.00,216.50 L161.50,217.00 L161.00,217.50 L160.50,218.00 L160.00,218.50 L159.50,219.00 L159.00,219.50 L158.50,220.00 L158.00,220.50 L157.50,221.00 L157.00,221.50 L156.50,222.00 L156.00,222.50 L155.50,223.00 L155.00,223.50 L154.50,224.00 L154.00,224.50 L153.50,225.00 L153.50,226.00 L153.00,226.50 L152.50,227.00 L152.50,228.00 L152.00,228.50 L151.50,229.00 L151.50,230.00 L151.50,231.00 L151.50,232.00 L151.50,233.00 L151.50,234.00 L151.50,235.00 L151.50,236.00 L152.00,236.50 L152.50,237.00 L152.50,238.00 L153.00,238.50 L153.50,239.00 L154.00,239.50 L154.50,240.00 L155.00,240.50 L155.50,241.00 L156.00,241.50 L156.50,242.00 L156.00,242.50 Z" fill="black"/></svg>