<?xml version="1.0" encoding="UTF-8" standalone="no"?>
<svg
   xml:space="preserve"
   viewBox="0 0 631.69042 461.65649"
   version="1.1"
   id="svg36"
   sodipodi:docname="logo-icon.svg"
   inkscape:version="1.4 (e7c3feb, 2024-10-09)"
   width="631.69043"
   height="461.65649"
   xmlns:inkscape="http://www.inkscape.org/namespaces/inkscape"
   xmlns:sodipodi="http://sodipodi.sourceforge.net/DTD/sodipodi-0.dtd"
   xmlns="http://www.w3.org/2000/svg"
   xmlns:svg="http://www.w3.org/2000/svg"><defs
     id="defs36" /><sodipodi:namedview
     id="namedview36"
     pagecolor="#ffffff"
     bordercolor="#000000"
     borderopacity="0.25"
     inkscape:showpageshadow="2"
     inkscape:pageopacity="0.0"
     inkscape:pagecheckerboard="0"
     inkscape:deskcolor="#d1d1d1"
     showgrid="false"
     inkscape:zoom="1.1310303"
     inkscape:cx="393.44658"
     inkscape:cy="307.68406"
     inkscape:window-width="1920"
     inkscape:window-height="1011"
     inkscape:window-x="0"
     inkscape:window-y="32"
     inkscape:window-maximized="1"
     inkscape:current-layer="svg36" /><path
     style="fill:#000000"
     d="m 274.21555,342.3347 c -8.6046,-3.30601 -21.0008,-13.36149 -21.0008,-17.03531 0,-0.91582 1.50455,-1.66513 3.34344,-1.66513 1.83889,0 3.82251,-0.77514 4.40804,-1.72255 0.61157,-0.98955 -0.99442,-1.73864 -3.77408,-1.76038 -7.08883,-0.0554 -18.76947,-5.88865 -22.16321,-11.06815 -1.6233,-2.47746 -2.65266,-4.77752 -2.28747,-5.11124 0.36518,-0.33373 5.20387,0.0224 10.75263,0.79142 11.95974,1.6575 36.96114,-0.624 47.4705,-4.33192 4.10827,-1.44948 7.84857,-2.63542 8.31178,-2.63542 0.46321,0 -3.79079,4.95269 -9.45335,11.00598 -13.63203,14.57269 -14.93427,22.94474 -5.18738,33.34967 4.58364,4.8931 1.95883,4.9392 -10.4201,0.18303 z m -38.01476,-46.2648 c -16.88204,-3.98584 -21.03958,-19.69199 -7.55195,-28.52942 4.01171,-2.62857 4.08382,-2.59863 2.20341,0.91496 -5.04123,9.41962 2.98087,14.10527 25.97621,15.17252 15.60701,0.72434 51.21377,-2.81975 64.85763,-6.45555 3.07906,-0.82051 5.59828,-1.13334 5.59828,-0.69518 0,2.2481 -33.48265,16.5154 -43.925,18.71689 -12.80877,2.7004 -37.48911,3.15873 -47.15858,0.87578 z m 15.87373,-22.53702 c -10.97169,-2.629 -12.31381,-5.40413 -6.60061,-13.64828 2.62035,-3.78117 4.95177,-6.87486 5.18092,-6.87486 0.22916,0 3.41811,1.32138 7.08657,2.93639 14.91158,6.56472 77.72161,1.16754 112.53277,-9.66979 6.11745,-1.90447 11.46646,-3.11885 11.88668,-2.69863 0.42023,0.42023 -8.90055,5.43598 -20.71285,11.14612 -27.68302,13.38214 -50.33631,18.96403 -80.67246,19.8781 -11.84252,0.35684 -24.75798,-0.12424 -28.70102,-1.06905 z m 30.42357,-23.36552 c -2.3685,-0.35681 -7.59706,-1.07291 -11.61902,-1.59133 -9.08503,-1.17103 -17.66432,-7.96599 -17.66432,-13.99047 0,-3.46639 0.60543,-4.08251 3.01446,-3.06769 22.94287,9.66476 100.09987,-3.94578 152.34686,-26.87408 8.81779,-3.86964 17.07961,-7.47325 18.35961,-8.00804 4.69995,-1.96363 -2.95729,9.36855 -11.31289,16.7423 -15.1146,13.33849 -43.41759,25.10137 -76.28057,31.70263 -16.71178,3.35693 -49.09226,6.25448 -56.84413,5.08668 z m -13.79154,-27.93065 c -5.76886,-1.91482 -15.07725,-6.78009 -16.07635,-8.40272 -0.44166,-0.71729 5.51658,-1.52953 13.24053,-1.80498 46.0626,-1.64269 128.79971,-29.578 178.547,-60.28451 6.15811,-3.8011 11.46412,-6.65639 11.79112,-6.34511 1.52874,1.4552 -2.16906,11.63374 -6.72561,18.51287 -13.01114,19.64324 -63.85512,43.15063 -118.25781,54.67574 -18.06358,3.82674 -55.41508,6.00664 -62.51888,3.64871 z m -31.85602,-22.00225 c -15.1669,-2.31327 -31.86716,-9.76557 -31.86716,-14.22035 0,-0.70879 4.06953,-0.70912 9.04339,-7.3e-4 68.31649,9.7298 207.88902,-39.8218 253.95365,-90.159636 15.85104,-17.32148 19.58656,-34.57369 10.16293,-46.93674 l -5.03176,-6.60125 5.63824,3.28595 c 7.9266,4.61961 13.48544,11.71621 15.74213,20.09691 4.03808,14.99628 -2.18973,29.4297 -20.66884,47.901606 -35.45811,35.44427 -112.97147,71.65043 -176.68335,82.52803 -19.54842,3.33752 -51.19656,5.49303 -60.28923,4.10621 z m -33.67479,-31.61381 c -19.08299,-3.05068 -41.27802,-13.86065 -47.28639,-23.03057 -1.39279,-2.12567 -3.04954,-6.53734 -3.68166,-9.80373 -1.13595,-5.86983 -1.10845,-5.90276 2.36548,-2.83237 9.72073,8.59156 41.14055,14.97139 73.66462,14.95769 74.88365,-0.0315 164.36741,-25.91814 198.56844,-57.443556 13.40846,-12.35948 16.18698,-23.94855 8.05796,-33.60934 -5.10143,-6.0627 -19.30919,-13.23099 -29.20382,-14.73431 l -6.8902,-1.04685 8.86242,3.63631 c 12.49297,5.12595 19.98999,13.22886 19.1979,20.74943 l -0.61272,5.81745 -2.43604,-4.87518 c -5.14164,-10.28982 -25.57673,-16.40727 -59.46255,-17.80072 -20.00479,-0.82263 -27.78613,-0.36375 -45.64755,2.69193 -46.77162,8.00157 -83.3807,24.54551 -92.24438,41.68599 -4.08436,7.898276 -2.86536,8.926946 3.28744,2.77415 18.12984,-18.12983 64.50186,-30.86708 112.21135,-30.82167 35.53933,0.0338 61.31724,7.33559 62.5295,17.71188 0.28475,2.4373 -0.60258,5.36123 -1.97186,6.49762 -2.01853,1.67523 -2.44242,1.48437 -2.24028,-1.00871 0.16214,-1.9997 -2.15998,-4.25942 -6.64088,-6.46244 -13.87988,-6.82399 -74.03234,-4.81794 -99.14855,3.30654 l -7.6495,2.47443 12.91911,-1.19671 c 21.1195,-1.95633 55.03896,-1.36616 69.37284,1.20702 13.14393,2.35956 13.33386,2.4659 10.3353,5.78663 -7.65626,8.478876 -36.27613,19.182956 -69.97358,26.170736 -87.47946,18.14043 -171.04802,2.27754 -189.78787,-36.025316 -10.71288,-21.89634 0.23326,-42.56238 30.59235,-57.75758 15.39896,-7.70743 22.34461,-9.14709 12.76433,-2.64573 -13.44007,9.12067 -16.99506,12.32341 -21.9024,19.73214 -7.05157,10.64593 -9.08652,19.07483 -6.72366,27.84984 2.64889,9.83723 13.4069,20.84476 25.81401,26.41273 10.6248,4.768126 36.17806,11.808206 49.93612,13.757706 l 7.75147,1.09837 -8.24781,-4.41466 c -9.07898,-4.85954 -14.99023,-12.859716 -15.00016,-20.300956 -0.0455,-34.09471 100.53948,-68.43418 180.70802,-61.69326 63.52847,5.34175 93.75572,28.22182 77.68808,58.80486 -15.8871,30.239406 -83.46126,65.525116 -153.32704,80.063956 -17.57502,3.6573 -27.54626,4.60601 -54.2603,5.16256 -18.00064,0.37501 -37.03003,-0.006 -42.28754,-0.84631 z M 161.97571,81.683654 c -3.17502,-3.82567 -4.1444,-15.2923 -1.8743,-22.17078 2.45723,-7.44548 18.36457,-22.62396 31.32878,-29.89333 31.4673,-17.64454 84.84923,-29.9839296 128.10271,-29.6113296 l 22.39314,0.1929 -17.22549,2.33037 C 255.14268,11.941694 186.33063,39.768694 169.41709,65.326764 c -2.65664,4.01445 -4.71844,9.59211 -4.78926,12.95608 -0.14427,6.8521 0.0284,6.63067 -2.65212,3.40081 z"
     id="path1"
     sodipodi:nodetypes="sssssssssssssssssssssssssssssssssssssssssssssssssssscssssscssssssscsscssssssssssscssssssssssscsssssscsssscssss" /></svg>
